<svg xmlns="http://www.w3.org/2000/svg" width="268.351" height="272.573" viewBox="0 0 268.351 272.573"><g transform="translate(-3.965 0.001)"><g transform="translate(3.965 -0.001)"><path d="M272.063,129.3c-.262-1.022-6.342-24.269-24.032-48.684C258.4,56.4,261.747,10.752,261.894,8.686A8.113,8.113,0,0,0,253.079.033,301.3,301.3,0,0,0,222.565,4.64c-22.881,4.711-37.48,10.9-44.634,18.936a48.2,48.2,0,0,0-4.205,5.466,149.867,149.867,0,0,0-71.171,0,48.22,48.22,0,0,0-4.206-5.467C91.2,15.545,76.6,9.352,53.716,4.64A301.5,301.5,0,0,0,23.2.033a8.113,8.113,0,0,0-8.815,8.654c.147,2.065,3.492,47.715,13.863,71.932C10.56,105.034,4.48,128.28,4.218,129.3a8.114,8.114,0,0,0,3.389,8.778l49.021,32.378A29.68,29.68,0,0,1,69.683,191.5c1.748,13.678,5.9,33.443,15.73,49.93,12.15,20.371,30.383,31.138,52.726,31.138h0c22.344,0,40.576-10.767,52.726-31.138,9.834-16.486,13.982-36.252,15.73-49.93a29.68,29.68,0,0,1,13.054-21.045l49.022-32.379A8.111,8.111,0,0,0,272.063,129.3ZM244.833,17.284c-1.432,13.688-4.3,34.1-8.78,48.806a130.865,130.865,0,0,0-31.7-24.925,124.6,124.6,0,0,0-14.295-6.813C197.546,25.981,224.5,19.988,244.833,17.284ZM86.219,34.352a124.424,124.424,0,0,0-14.295,6.814,130.876,130.876,0,0,0-31.7,24.924c-4.478-14.707-7.349-35.119-8.78-48.806C51.787,19.988,78.736,25.981,86.219,34.352Zm51.92,191.234a12.712,12.712,0,0,1-12.7-12.7c0-2.636,0-6.62,12.7-6.62s12.7,3.984,12.7,6.62A12.712,12.712,0,0,1,138.14,225.586Zm72.57-68.664A45.887,45.887,0,0,0,190.5,189.448c-2.955,23.115-12.636,60.716-44.252,66.217v-15.02a28.967,28.967,0,0,0,20.81-27.755c0-6.869-2.816-31.175-28.919-31.175s-28.925,24.307-28.925,31.175a28.967,28.967,0,0,0,20.81,27.755v15.02c-31.615-5.5-41.3-43.1-44.25-66.216a45.89,45.89,0,0,0-20.206-32.527L21.65,127.912A149.994,149.994,0,0,1,44.056,86.578c23.442-30.256,55.1-45.6,94.087-45.6s70.642,15.341,94.085,45.6a149.963,149.963,0,0,1,22.406,41.334Z" transform="translate(-3.965 0.001)" fill="#fff"/></g><g transform="translate(72.069 120.316)"><g transform="translate(0)"><path d="M137.907,226.762c-4.177,0-8.178,3.672-7.985,7.985a8.124,8.124,0,0,0,7.985,7.985c4.176,0,8.178-3.672,7.985-7.985A8.124,8.124,0,0,0,137.907,226.762Z" transform="translate(-129.915 -226.762)" fill="#fff"/></g></g><g transform="translate(188.23 120.316)"><g transform="translate(0)"><path d="M359.577,226.762c-4.177,0-8.178,3.672-7.985,7.985a8.124,8.124,0,0,0,7.985,7.985c4.177,0,8.178-3.672,7.985-7.985A8.123,8.123,0,0,0,359.577,226.762Z" transform="translate(-351.585 -226.762)" fill="#fff"/></g></g></g></svg>