<svg xmlns="http://www.w3.org/2000/svg" width="628.848" height="410.848" viewBox="0 0 628.848 410.848">
  <g id="Group_20" data-name="Group 20" transform="translate(-185 -258.5)">
    <g id="wolf" transform="translate(346.838 316.842)">
      <g id="Group_2" data-name="Group 2" transform="translate(0.003 45.867)">
        <g id="Group_1" data-name="Group 1">
          <path id="Path_1" data-name="Path 1" d="M160.412,108.523a6.383,6.383,0,0,0-5.852-.753l-6.571,2.416,2.832-7.805a6.341,6.341,0,0,0,.056-4.2l-5.717-17.154a6.381,6.381,0,0,0-10.5-2.556L97.3,114.819l-18.467,5.6a6.423,6.423,0,0,0-2.047,1.057c-.514.4-12.82,9.913-28.347,24.3-20.958,19.42-36.911,37.546-47.417,53.872a6.376,6.376,0,0,0,5.366,9.834H19.674C13.859,219.2,6.713,234.96,6.386,254.049a6.389,6.389,0,0,0,3.524,5.815l9.441,4.72c.762,8.554,4.324,28.727,20.818,45.142a6.4,6.4,0,0,0,7.2,1.271l12.125-5.656c2.169,3.253,5.277,7.806,8.642,12.4,11.843,16.2,16.747,19.369,21.211,19.369,5.132,0,10.171-4.337,17.972-15.48,1.767-2.524,3.407-5.029,4.763-7.179l11.779,8.656a6.373,6.373,0,0,0,8.09-.439c12.489-11.461,14.849-27.436,15.06-36.616h6.151a6.374,6.374,0,0,0,6.38-6.189c.869-29.071-15.821-70.2-19.135-78.055L140.7,154.3l21.276-30.1a6.406,6.406,0,0,0,1.168-3.683v-6.759A6.39,6.39,0,0,0,160.412,108.523Zm-31.3,40.042a6.391,6.391,0,0,0-1.168,3.646l-.285,46.591c-8.483,4.253-15.559,12.582-20.051,18.92-6.665-7.236-19.318-17.144-40.575-20.9a6.379,6.379,0,1,0-2.22,12.564c27.544,4.861,37.051,21.463,37.607,22.472a6.3,6.3,0,0,0,5.553,3.459h.117a6.4,6.4,0,0,0,5.571-3.347c2.421-4.394,9.381-14.938,17.013-20.173,4.768,12.115,14.765,39.776,16,61.509H140.4a6.35,6.35,0,0,0-6.333,7.179c.023.187,1.958,16.836-7.263,28.96l-12.765-9.386a6.379,6.379,0,0,0-9.3,1.944c-5.328,9.18-11.858,18.284-15.289,21.51-1.813-1.655-5.506-5.637-12.2-14.938-5.426-7.544-10.03-14.723-10.077-14.789a6.371,6.371,0,0,0-8.067-2.346l-12.914,6.02c-14.2-16.6-14.279-36.663-14.279-36.85a6.357,6.357,0,0,0-3.529-5.776l-9.049-4.524c1.533-19.856,11.6-35.317,15.672-40.832h3.4a6.375,6.375,0,1,0,0-12.75H18.622c23.052-30.7,58.925-59.6,65.057-64.445l1.482-.449-3.468,5.4a6.381,6.381,0,1,0,10.741,6.894l11.816-18.406a6.042,6.042,0,0,0,.836-.673l31.18-30.338,1.8,5.4L131.3,118.739a6.382,6.382,0,0,0,8.2,8.17l6.661-2.449Z" transform="translate(-0.003 -76.666)" fill="#3e3e41"/>
        </g>
      </g>
      <g id="Group_4" data-name="Group 4" transform="translate(178.688)">
        <g id="Group_3" data-name="Group 3">
          <path id="Path_2" data-name="Path 2" d="M362.479,0A63.816,63.816,0,1,0,426.3,63.814,63.884,63.884,0,0,0,362.479,0Zm0,114.868a51.052,51.052,0,1,1,51.059-51.054A51.11,51.11,0,0,1,362.479,114.868Z" transform="translate(-298.67)" fill="#3e3e41"/>
        </g>
      </g>
      <g id="Group_6" data-name="Group 6" transform="translate(274.411 57.434)">
        <g id="Group_5" data-name="Group 5">
          <path id="Path_3" data-name="Path 3" d="M465.044,96a6.382,6.382,0,1,0,6.384,6.38A6.375,6.375,0,0,0,465.044,96Z" transform="translate(-458.669 -96)" fill="#3e3e41"/>
        </g>
      </g>
      <g id="Group_8" data-name="Group 8" transform="translate(236.121 82.959)">
        <g id="Group_7" data-name="Group 7">
          <path id="Path_4" data-name="Path 4" d="M401.044,138.664a6.382,6.382,0,1,0,6.385,6.384A6.379,6.379,0,0,0,401.044,138.664Z" transform="translate(-394.669 -138.664)" fill="#3e3e41"/>
        </g>
      </g>
      <g id="Group_10" data-name="Group 10" transform="translate(204.207 25.525)">
        <g id="Group_9" data-name="Group 9">
          <path id="Path_5" data-name="Path 5" d="M360.471,42.664a19.145,19.145,0,1,0,19.144,19.145A19.169,19.169,0,0,0,360.471,42.664Zm0,25.53a6.382,6.382,0,1,1,6.385-6.385A6.388,6.388,0,0,1,360.471,68.194Z" transform="translate(-341.326 -42.664)" fill="#3e3e41"/>
        </g>
      </g>
    </g>
    <g id="Group_11" data-name="Group 11" transform="translate(184 264)">
      <rect id="Rectangle_1" data-name="Rectangle 1" width="9.848" height="1.231" rx="0.616" transform="translate(65 223.809)" fill="#8d8d8f"/>
      <rect id="Rectangle_2" data-name="Rectangle 2" width="9.848" height="1.231" rx="0.616" transform="translate(70.54 219.5) rotate(90)" fill="#8d8d8f"/>
    </g>
    <g id="Group_18" data-name="Group 18" transform="translate(120 39)">
      <rect id="Rectangle_1-2" data-name="Rectangle 1" width="9.848" height="1.231" rx="0.616" transform="translate(65 223.809)" fill="#8d8d8f"/>
      <rect id="Rectangle_2-2" data-name="Rectangle 2" width="9.848" height="1.231" rx="0.616" transform="translate(70.54 219.5) rotate(90)" fill="#8d8d8f"/>
    </g>
    <g id="Group_12" data-name="Group 12" transform="translate(287 191)">
      <rect id="Rectangle_1-3" data-name="Rectangle 1" width="9.848" height="1.231" rx="0.616" transform="translate(65 223.809)" fill="#8d8d8f"/>
      <rect id="Rectangle_2-3" data-name="Rectangle 2" width="9.848" height="1.231" rx="0.616" transform="translate(70.54 219.5) rotate(90)" fill="#8d8d8f"/>
    </g>
    <g id="Group_13" data-name="Group 13" transform="translate(452 311)">
      <rect id="Rectangle_1-4" data-name="Rectangle 1" width="9.848" height="1.231" rx="0.616" transform="translate(65 223.809)" fill="#8d8d8f"/>
      <rect id="Rectangle_2-4" data-name="Rectangle 2" width="9.848" height="1.231" rx="0.616" transform="translate(70.54 219.5) rotate(90)" fill="#8d8d8f"/>
    </g>
    <g id="Group_17" data-name="Group 17" transform="translate(490 440)">
      <rect id="Rectangle_1-5" data-name="Rectangle 1" width="9.848" height="1.231" rx="0.616" transform="translate(65 223.809)" fill="#8d8d8f"/>
      <rect id="Rectangle_2-5" data-name="Rectangle 2" width="9.848" height="1.231" rx="0.616" transform="translate(70.54 219.5) rotate(90)" fill="#8d8d8f"/>
    </g>
    <g id="Group_19" data-name="Group 19" transform="translate(739 208)">
      <rect id="Rectangle_1-6" data-name="Rectangle 1" width="9.848" height="1.231" rx="0.616" transform="translate(65 223.809)" fill="#8d8d8f"/>
      <rect id="Rectangle_2-6" data-name="Rectangle 2" width="9.848" height="1.231" rx="0.616" transform="translate(70.54 219.5) rotate(90)" fill="#8d8d8f"/>
    </g>
    <g id="Group_16" data-name="Group 16" transform="translate(253 404)">
      <rect id="Rectangle_1-7" data-name="Rectangle 1" width="9.848" height="1.231" rx="0.616" transform="translate(65 223.809)" fill="#8d8d8f"/>
      <rect id="Rectangle_2-7" data-name="Rectangle 2" width="9.848" height="1.231" rx="0.616" transform="translate(70.54 219.5) rotate(90)" fill="#8d8d8f"/>
    </g>
    <g id="Group_14" data-name="Group 14" transform="translate(603 250)">
      <rect id="Rectangle_1-8" data-name="Rectangle 1" width="9.848" height="1.231" rx="0.616" transform="translate(65 223.809)" fill="#8d8d8f"/>
      <rect id="Rectangle_2-8" data-name="Rectangle 2" width="9.848" height="1.231" rx="0.616" transform="translate(70.54 219.5) rotate(90)" fill="#8d8d8f"/>
    </g>
    <g id="Group_15" data-name="Group 15" transform="translate(542 338)">
      <rect id="Rectangle_1-9" data-name="Rectangle 1" width="9.848" height="1.231" rx="0.616" transform="translate(65 223.809)" fill="#8d8d8f"/>
      <rect id="Rectangle_2-9" data-name="Rectangle 2" width="9.848" height="1.231" rx="0.616" transform="translate(70.54 219.5) rotate(90)" fill="#8d8d8f"/>
    </g>
  </g>
</svg>
